<?xml version="1.0" encoding="utf-8"?>
<!-- Generator: Adobe Illustrator 24.1.0, SVG Export Plug-In . SVG Version: 6.00 Build 0)  -->
<svg version="1.1" id="Layer_2_1_" xmlns="http://www.w3.org/2000/svg" xmlns:xlink="http://www.w3.org/1999/xlink" x="0px" y="0px"
	 viewBox="0 0 313.8 318.2" style="enable-background:new 0 0 313.8 318.2;" xml:space="preserve">
<style type="text/css">
	.st0{fill:#FFFFFF;}
</style>
<g>
	<path d="M99.1,73.6c0-1.3,0.1-2.6,0.3-3.9C99,71.9,99.1,73.6,99.1,73.6z"/>
	<path d="M110.8,78.5c0,0.1,0.1,0.2,0.1,0.2C110.9,78.6,110.9,78.5,110.8,78.5z"/>
	<path d="M140.6,1.4c0.3-0.1,0.5-0.1,0.8-0.2C141.4,1.2,141,1.2,140.6,1.4z"/>
	<path d="M173.4,5.6c0.3,0,0.6-0.1,0.7-0.2C173.8,5.5,173.6,5.6,173.4,5.6z"/>
	<path d="M195.2,62.9c0.2,0.1,0.3,0.2,0.5,0.2C195.8,63.1,195.6,63,195.2,62.9z"/>
	<path d="M311.3,206.6c-10.7-25.8-38.1-49.9-38.1-49.9c-2-0.9-8.4-7.6-8.4-7.6c-4.4-10.1-20.8-26.4-36.5-38
		c-11.6-8.6-35.5-9.4-47.3-9.3l0,0c-0.8-1.5-1.2-3.2-1-4.8c0,0,0.8-4,2.2-4.2c1.8,0.3,3.1,2,2.8,3.9c0,0,0.8-3.9-1.5-5
		c1.3,0,2.5,0.6,3.2,1.7c-0.2-1.3-1-2.5-2.1-3.1c0,0-1.5-2.1,0-2.1c1.5,0,3.5,3.6,3.5,3.6c0.7-2.2-3.7-6-3.7-6
		c0.8,0.7,1.8,1.2,2.8,1.3c-1.4-1.4-1.7-5-1.7-5c1.8,0.8,2.1,3.5,2.1,3.5c0.6-2.1-1.2-5-2.3-6.5c1.2,0.7,3.1,1.1,3.1,1.1
		c-2.8-2.1-1.5-4.6-1.5-4.6c2.5,0,3.6,4.5,3.6,4.5c0.5-2.6-2-7.1-3.2-9c1.2,1.1,3.8,2.3,3.8,2.3c-2.4-1.6-1.1-7.2-1.1-7.2
		c1.6,0.2,2.5,3.8,2.5,3.8c0.4-1.9-1.9-6.7-1.9-6.7c0.8,0.6,1.5,1.3,2,2.1c0.1-1.7-0.8-3.4-1.7-4.5c1.3,1,3.1,1.8,4,2.1
		c-3.2-1.6-5.6-11.4-5.6-11.4c0.9,4.8,8.5,9.1,8.5,9.1c-7.4-7.9-9.6-20.6-9.6-20.6c7.4,2.6,9.4,15.2,9.4,15.2
		c1.6-9.2-7.7-20.6-11.5-24.9c5.1,4.5,11.5,1.8,11.5,1.8c-9.4,0.4-12.5-10.6-12.5-10.6c5.3-1.2,7.9,4.2,7.9,4.2
		c-4.7-10.7-13.9-10.3-13.9-10.3c1.3-0.3,2.5-0.7,3.7-1.2c-6.8-0.5-13.3-5.2-13.3-5.2c1.5-0.9,6.6,1.2,6.6,1.2
		c-2.9-3.5-8.4-3.8-9.8-3.8c2.3,0.1,4.6-0.2,6.8-0.9c-3.5,0.3-17.2-3.3-17.2-3.3c1.8-0.8,3.8-0.7,5.4,0.4
		c-5.4-3.6-11.2-1.8-13.4-0.9c0.8-0.6,1.3-1.8,1.3-1.8c-1,1.1-9.5,4.1-9.7,2.7c-0.1-0.8,0.4-1.1,0.9-1.3c-4.4,1.2-6.2,3.5-6.2,3.5
		c-1.8-3.2-7.4-3.7-7.4-3.7c1.4,2.5-1.2,8.4-1.2,8.4s-7.5-0.1-18.2,7.1c0,0,6.8-3.2,9.5,0c-5.2,1.6-9.8,4.8-13.1,9.1
		c0,0,9.6-6.7,13.6-4.4c0,0-14.4,4.1-22.3,23.3c0,0,5.1-9.8,12.5-9.7c0,0-3.3,15.8-13.2,24.4c0,0,9-6.5,12-11.2c0,0-5.9,11-7.3,21.4
		c0.5-3.2,2-7.6,6.2-11c1.7,3.9,1.9,8.2,0.6,12.3c0,0,2.7-2.5,3.2-4.8c-0.8,4.2-0.2,8.5,1.5,12.3c-0.2-0.6-0.7-2.6,0.9-6.3
		c0,0-0.6,9.4,2.6,11.9c0,0-2.1-2.4,0.1-6.8c0,0,4.1,4.4,3.8,8.6c0.8-1.9,1-3.9,0.5-5.9c2.4,2.1,3.7,5.2,3.4,8.4
		c0,0,1.8-4.3,0.2-7.8c0,0,1.9-0.1,2.1,12.4c0.3-0.7,0.5-1.3,0.6-2c-0.1,1.9,0,4.9,1.6,7.3c-0.6-1.3-0.6-2.7,0-4c0,0,1.4,7,4.1,6.8
		c-1-0.8-1.7-2-1.8-3.3c0,0,2.9,0.8,3.1,4.1c-11.9-0.1-35.2,0.9-46.6,9.3c-15.7,11.6-32.1,28-36.5,38c0,0-6.4,6.7-8.4,7.6
		c0,0-27.4,24.1-38.1,49.9c0,0-7.9,15.4,4.4,18.9c0,0,15.1,20.1,28.3,25.1c0,0,3.8,62.2,7.2,67.6h103.9v0h125.1
		c3.5-5.3,7.2-67.6,7.2-67.6c13.2-5,28.3-25.1,28.3-25.1C319.2,222.1,311.3,206.6,311.3,206.6z M102.4,230.4c0,0.5-0.1,0.9-0.2,1.4
		c0,0,0-0.5,0.1-1.4c-0.1-11.3-28.1-41.4-28.1-41.4c-0.9-1.6-1.5-3.4-2-5.2c-1-3.3,9-11.8,9-11.8c12.3-1.9,21.2,15.7,21.2,15.7
		C105.9,190,103,223.3,102.4,230.4z M241.8,183.9c-0.5,1.8-1.1,3.5-2,5.2c0,0-28,30-28.1,41.4c0.1,0.9,0.1,1.4,0.1,1.4
		c-0.1-0.4-0.2-0.9-0.2-1.4c-0.7-7.1-3.5-40.4,0-42.7c0,0,9-17.6,21.2-15.7C232.8,172.1,242.7,180.6,241.8,183.9z"/>
</g>
<path class="st0" d="M102.3,234.4c-0.1,0.9-0.1,1.4-0.1,1.4C102.2,235.3,102.3,234.8,102.3,234.4z"/>
<path class="st0" d="M85.2,266.1c-0.7,1.3-1.5,2.5-2.4,3.7c-0.7,0.8-1.3,1.2-1.7,1.2c-0.6,0-0.9-0.7-0.9-2.1c0-1.2,0.2-2.5,0.6-3.6
	c0.4-1,0.9-2,1.6-2.9c0.7-0.8,1.5-1.6,2.5-2.1c1-0.6,2-1.1,3.2-1.4c1.2-0.4,2.4-0.7,3.6-0.8c1.3-0.2,2.6-0.3,3.9-0.3
	c1.6,0,3.1,0.1,4.7,0.3c1.5,0.2,3,0.6,4.5,1c1.4,0.4,2.7,0.9,4,1.5c1.2,0.5,2.3,1.2,3.3,2c0.9,0.6,1.6,1.4,2.2,2.3
	c0.5,0.8,0.8,1.7,0.8,2.6c0,1.1-0.2,2.2-0.7,3.1c-0.5,1.1-1.2,2-2.2,2.8c-1.1,0.9-2.4,1.6-3.8,2.1c-1.8,0.6-3.7,0.9-5.5,0.9
	c1.2,0,2.4,0.2,3.6,0.7c1,0.4,1.8,1,2.6,1.8c0.7,0.7,1.2,1.6,1.6,2.5c0.3,1,0.5,2,0.5,3c0,0.9-0.1,1.8-0.4,2.6
	c-0.2,0.9-0.6,1.8-1.1,2.6c-0.5,0.8-1.1,1.6-1.8,2.3c-0.7,0.8-1.6,1.4-2.5,1.9c-1,0.6-2.1,1-3.2,1.3c-1.3,0.3-2.6,0.5-3.9,0.5
	c-0.9,0-1.9-0.1-2.8-0.2c-1-0.1-2-0.3-3-0.5s-2-0.4-3-0.7s-1.9-0.6-2.8-0.9c-0.4-0.1-0.7-0.2-1-0.4c-0.3-0.2-0.5-0.6-0.4-1
	c0-2.3,0.1-4.6,0.2-7c0.1-2.3,0.4-4.7,0.7-7c0.3-2.2,0.9-4.4,1.6-6.5c0.6-2,1.5-3.8,2.7-5.6c0.8-0.6,1.7-0.9,2.7-1
	c1.1,0.1,2.1,0.7,2.5,1.7c-0.6,0.9-1.2,1.8-1.6,2.9c-0.5,1.1-0.8,2.2-1.1,3.3c-0.3,1.2-0.5,2.3-0.7,3.5c-0.2,1.2-0.3,2.4-0.4,3.5
	c-0.1,0.6-0.1,1.3-0.2,2.1s-0.1,1.5-0.1,2.2s-0.1,1.5-0.1,2.3s0,1.5,0,2.2c0,0.1,0,0.3,0,0.5c0,0.2,0,0.4,0,0.6
	c0,0.2,0.1,0.4,0.1,0.6c0,0.1,0.1,0.3,0.3,0.4c0.9,0.3,1.8,0.5,2.7,0.7c1,0.2,1.9,0.3,2.9,0.3c1.1,0,2.3-0.1,3.4-0.4
	c1.1-0.3,2.1-0.7,2.9-1.4c0.9-0.6,1.6-1.4,2.1-2.4c0.5-1.1,0.8-2.3,0.8-3.5c0-0.7-0.1-1.4-0.4-2c-0.3-0.5-0.7-1-1.2-1.3
	c-0.5-0.4-1.1-0.7-1.7-0.9c-0.6-0.2-1.3-0.4-1.9-0.6l-1.9-0.5c-0.6-0.1-1.1-0.4-1.7-0.6c-0.5-0.2-0.9-0.6-1.2-1
	c-0.3-0.4-0.5-0.9-0.5-1.5c0-0.3,0-0.5,0.1-0.8c0-0.2,0.1-0.4,0.2-0.5c0.2-0.2,0.4-0.3,0.6-0.3c0.3-0.1,0.7-0.1,1-0.1
	c0.5,0,1.1,0,1.6,0.1c0.5,0,1,0.1,1.6,0.1c1.2,0,2.4-0.1,3.6-0.5c1-0.3,1.9-0.7,2.7-1.3c0.7-0.5,1.3-1.2,1.7-1.9
	c0.4-0.7,0.6-1.5,0.6-2.4c0-0.5-0.2-1.1-0.5-1.5c-0.4-0.5-0.8-0.9-1.3-1.2c-0.6-0.4-1.3-0.7-2-1c-0.8-0.3-1.7-0.5-2.5-0.7
	c-0.9-0.2-1.9-0.3-2.9-0.4c-1-0.1-2-0.1-3.1-0.1c-1.3,0-2.6,0.1-3.9,0.2c-1.2,0.1-2.4,0.3-3.6,0.7c-1,0.3-2,0.6-2.9,1.1
	C86.3,265,85.7,265.5,85.2,266.1z"/>
<path class="st0" d="M113.3,289.3c0-0.6,0-1.3,0.1-2.1s0.2-1.7,0.3-2.5s0.3-1.8,0.4-2.8s0.3-1.8,0.5-2.6s0.4-1.6,0.5-2.3
	c0.1-0.6,0.3-1.2,0.5-1.7c0.1-0.3,0.2-0.5,0.3-0.7c0.1-0.2,0.2-0.3,0.4-0.4c0.2-0.1,0.3-0.2,0.5-0.2c0.5-0.1,1.1-0.1,1.6,0
	c0.2,0,0.3,0.1,0.4,0.3c0.1,0.2,0.2,0.4,0.2,0.6c0,0.3,0,0.6,0,1v1.9c0,0.7,0,1.4,0,2.1h0.2c0.3-0.5,0.6-1.2,0.9-1.9
	c0.3-0.7,0.7-1.3,1.2-1.9c0.4-0.6,1-1.1,1.6-1.5c0.6-0.4,1.3-0.6,2-0.6c0.3,0,0.5,0,0.8,0.1c0.8,0.3,1.3,1,1.3,1.8
	c0,0.3,0,0.7-0.1,1c-0.1,0.4-0.1,0.9-0.2,1.3s-0.2,0.9-0.2,1.4c-0.1,0.4-0.1,0.7-0.1,1.1c0,0.4,0,0.8,0.1,1.2
	c0.1,0.3,0.2,0.6,0.4,0.8c0.1,0.2,0.3,0.3,0.5,0.4c0.2,0.1,0.4,0.1,0.6,0.1c0.7,0,1.3-0.1,1.9-0.4c0.6-0.3,1.2-0.6,1.8-0.9
	c0.7-0.4,1.3-0.9,1.9-1.4l-0.3,4.8l-1.2,0.8c-0.5,0.3-0.9,0.6-1.5,0.8c-0.5,0.2-1.1,0.5-1.6,0.6c-0.6,0.2-1.1,0.3-1.7,0.3
	c-0.9,0-1.7-0.2-2.5-0.6c-0.6-0.4-1.2-1-1.5-1.7c-0.4-0.7-0.7-1.5-0.8-2.3c-0.2-0.8-0.3-1.7-0.4-2.6h-0.3l-3.7,10.3
	c-0.2,0.5-0.3,0.9-0.6,1.3c-0.1,0.3-0.3,0.6-0.5,0.9c-0.1,0.2-0.3,0.4-0.6,0.5c-0.2,0.1-0.4,0.1-0.7,0.1c-0.5,0-1-0.1-1.4-0.4
	c-0.4-0.2-0.6-0.6-0.8-1c-0.2-0.4-0.3-0.9-0.4-1.4C113.3,290.3,113.3,289.8,113.3,289.3z"/>
<path class="st0" d="M143.9,278.1c0.4,0.8,0.7,1.7,0.9,2.5c0.4,1.6,0.4,3.4,0,5c-0.2,0.8-0.4,1.6-0.8,2.4c-0.3,0.8-0.8,1.5-1.2,2.2
	c-0.5,0.7-1,1.3-1.7,1.8c-0.6,0.5-1.3,0.9-2.1,1.2c-0.8,0.3-1.6,0.4-2.4,0.4c-1.1,0-2.2-0.2-3.1-0.8c-0.9-0.5-1.6-1.2-2.1-2.1
	c-0.6-0.9-1-1.9-1.2-2.9c-0.3-1.1-0.4-2.2-0.4-3.3c0-1.4,0.2-2.9,0.7-4.3c0.4-1.3,1.1-2.4,1.9-3.4c0.9-1,1.9-1.8,3.1-2.3
	c1.3-0.6,2.7-0.9,4.1-0.8c1.3,0,2.5,0.2,3.7,0.6c1.1,0.4,2.2,1,3.2,1.6c1,0.7,1.9,1.5,2.8,2.4c0.9,0.9,1.7,1.8,2.5,2.8l-0.4,2.9
	c-0.5-0.6-1-1.1-1.5-1.6c-0.6-0.6-1.3-1.1-2-1.7c-0.7-0.6-1.4-1.1-2.1-1.6s-1.3-0.9-1.8-1.2L143.9,278.1z M137.5,289.6
	c0.5,0,1-0.3,1.4-0.7c0.5-0.5,0.9-1.1,1.2-1.8c0.3-0.8,0.6-1.6,0.8-2.4c0.2-0.8,0.3-1.7,0.3-2.5c0-0.6,0-1.2-0.1-1.8
	c-0.1-0.5-0.2-1-0.4-1.4c-0.2-0.4-0.4-0.7-0.7-1c-0.3-0.2-0.7-0.4-1.1-0.4c-0.6,0-1.2,0.3-1.6,0.7c-0.6,0.5-1,1.2-1.4,1.9
	c-0.4,0.8-0.7,1.6-0.9,2.5c-0.2,0.9-0.3,1.7-0.3,2.6c0,0.6,0,1.1,0.2,1.6c0.1,0.5,0.3,0.9,0.5,1.3c0.2,0.4,0.6,0.7,0.9,0.9
	C136.5,289.5,137,289.6,137.5,289.6L137.5,289.6z"/>
<path class="st0" d="M157.8,291.4c-0.7,0.6-1.5,1.2-2.3,1.6c-0.7,0.4-1.5,0.6-2.4,0.6c-0.7,0-1.3-0.1-1.9-0.4
	c-0.6-0.3-1.2-0.7-1.7-1.2c-0.5-0.5-0.9-1.2-1.2-1.8c-0.3-0.8-0.4-1.6-0.4-2.5c0-1.1,0.1-2.1,0.4-3.2c0.3-1.1,0.7-2.2,1.2-3.2
	c0.5-1,1.1-2,1.8-3c0.7-0.9,1.4-1.7,2.3-2.4c0.8-0.7,1.7-1.2,2.6-1.6c0.9-0.4,1.8-0.6,2.8-0.6c0.3,0,0.5,0.1,0.7,0.2
	c0.2,0.1,0.3,0.3,0.4,0.4l0.3,0.5c0.1,0.1,0.2,0.3,0.4,0.3c0.2,0.1,0.3,0.1,0.5,0.1c0.2,0,0.4,0,0.5,0h0.9c0.2,0,0.4,0,0.6,0.1
	c0.2,0,0.3,0.1,0.5,0.3c0.2,0.2,0.3,0.4,0.3,0.6c0.1,0.3,0.1,0.7,0.1,1c0,0.4,0,0.8-0.1,1.5s-0.1,1.3-0.2,2s-0.2,1.5-0.3,2.4
	c-0.1,0.8-0.2,1.7-0.4,2.5c-0.3,1.9-0.6,3.9-1,6.1c0.5-0.3,0.9-0.6,1.4-0.9c0.6-0.4,1.1-0.9,1.6-1.4c0.7-0.7,1.4-1.4,2-2.2
	c0.7-0.9,1.6-2,2.5-3.3l1,4.6c-0.3,0.5-0.6,0.9-1,1.3c-0.4,0.5-0.8,0.9-1.3,1.3c-0.5,0.5-1,0.9-1.5,1.3c-0.5,0.4-1,0.8-1.5,1.2
	c-1.1,0.9-2.4,1.8-3.7,2.6c-0.3,1.5-0.6,2.9-0.9,4.3c-0.3,1.3-0.8,2.6-1.3,3.9c-0.5,1.2-1,2.3-1.7,3.4c-0.6,1-1.3,1.9-2.1,2.6
	c-0.8,0.7-1.7,1.3-2.7,1.7c-1,0.4-2.1,0.6-3.3,0.6c-0.5,0-1,0-1.5-0.1c-0.6-0.1-1.1-0.3-1.6-0.5c-0.5-0.3-0.9-0.7-1.1-1.2
	c-0.3-0.7-0.5-1.4-0.4-2.1c0-0.7,0.2-1.4,0.5-2.1c0.4-0.9,0.8-1.7,1.3-2.5c0.6-0.9,1.3-1.8,2-2.7c0.8-0.9,1.6-1.9,2.5-2.8
	c0.9-0.9,1.8-1.8,2.8-2.7c1-0.9,2-1.8,3-2.6L157.8,291.4z M150.2,308.8c0.6,0,1.2-0.2,1.6-0.5c0.5-0.4,1-0.8,1.4-1.3
	c0.5-0.6,0.9-1.2,1.2-1.9c0.4-0.7,0.7-1.4,1-2.2c0.3-0.7,0.5-1.5,0.7-2.2s0.3-1.3,0.5-1.9c-0.6,0.4-1.1,0.8-1.6,1.3
	c-0.6,0.5-1.1,1-1.6,1.6c-0.5,0.6-1,1.2-1.5,1.8c-0.5,0.6-0.9,1.2-1.3,1.7c-0.3,0.5-0.6,1-0.9,1.6c-0.2,0.4-0.3,0.8-0.3,1.2
	C149.4,308.6,149.6,308.8,150.2,308.8z M153.3,286.9c0,0.3,0,0.7,0.1,1c0,0.3,0.1,0.6,0.3,0.9c0.1,0.2,0.3,0.5,0.5,0.6
	c0.2,0.2,0.5,0.2,0.8,0.2c0.5,0,1-0.3,1.4-0.7c0.4-0.5,0.8-1,1.1-1.6c0.3-0.6,0.5-1.3,0.7-1.9c0.2-0.5,0.3-1.1,0.4-1.6l1.3-6.1
	c-0.6,0-1.1,0.1-1.7,0.4c-0.6,0.3-1.1,0.7-1.5,1.1c-0.5,0.5-0.9,1.1-1.3,1.6c-0.4,0.6-0.7,1.3-1,2c-0.3,0.7-0.5,1.4-0.7,2.1
	C153.4,285.6,153.3,286.3,153.3,286.9L153.3,286.9z"/>
<path class="st0" d="M181.2,278.1c0.4,0.8,0.7,1.7,0.9,2.5c0.4,1.6,0.4,3.4,0,5c-0.2,0.8-0.4,1.6-0.8,2.4c-0.3,0.8-0.8,1.5-1.3,2.2
	c-0.5,0.7-1,1.3-1.7,1.8c-0.6,0.5-1.3,0.9-2.1,1.2c-0.8,0.3-1.6,0.4-2.4,0.4c-1.1,0-2.2-0.2-3.1-0.8c-0.9-0.5-1.6-1.2-2.1-2.1
	c-0.6-0.9-1-1.9-1.2-2.9c-0.3-1.1-0.4-2.2-0.4-3.3c0-1.4,0.2-2.9,0.7-4.3c0.4-1.3,1.1-2.4,2-3.4c0.9-1,1.9-1.8,3.1-2.3
	c1.3-0.6,2.7-0.9,4.1-0.8c1.3,0,2.5,0.2,3.7,0.6c1.1,0.4,2.2,1,3.2,1.6c1,0.7,1.9,1.5,2.8,2.4c0.8,0.9,1.7,1.8,2.4,2.7l-0.4,2.9
	c-0.5-0.6-1-1.1-1.5-1.6c-0.6-0.6-1.3-1.1-2-1.7c-0.7-0.6-1.4-1.1-2.1-1.6s-1.3-0.9-1.8-1.2L181.2,278.1z M174.8,289.6
	c0.5,0,1-0.3,1.4-0.7c0.5-0.5,0.9-1.1,1.2-1.8c0.3-0.8,0.6-1.6,0.8-2.4c0.2-0.8,0.3-1.7,0.3-2.5c0-0.6,0-1.2-0.1-1.8
	c-0.1-0.5-0.2-1-0.4-1.4c-0.2-0.4-0.4-0.7-0.8-1c-0.3-0.2-0.7-0.4-1.1-0.4c-0.6,0-1.2,0.3-1.6,0.7c-0.5,0.5-1,1.2-1.3,1.9
	c-0.4,0.8-0.7,1.6-0.9,2.5c-0.2,0.9-0.3,1.7-0.3,2.6c0,0.6,0,1.1,0.2,1.6c0.1,0.5,0.3,0.9,0.5,1.3c0.2,0.4,0.6,0.7,0.9,0.9
	C173.8,289.5,174.3,289.6,174.8,289.6z"/>
<path class="st0" d="M193.5,293.6c-1.2,0-2.3-0.2-3.4-0.7c-0.9-0.4-1.8-1.1-2.4-1.9c-0.7-0.8-1.2-1.7-1.5-2.8
	c-0.3-1.1-0.5-2.2-0.5-3.3c0-0.8,0.1-1.6,0.2-2.5c0.2-0.9,0.4-1.7,0.7-2.5c0.3-0.8,0.7-1.6,1.2-2.4c0.5-0.7,1-1.4,1.6-2
	c0.6-0.6,1.3-1,2.1-1.4c0.8-0.3,1.7-0.5,2.6-0.5c0.7,0,1.5,0.1,2.1,0.4c0.6,0.2,1.2,0.6,1.7,1c0.5,0.5,0.9,1,1.1,1.6
	c0.3,0.7,0.4,1.4,0.4,2.1c0,0.9-0.2,1.8-0.6,2.6c-0.4,0.9-1,1.7-1.7,2.4c-0.8,0.8-1.7,1.5-2.7,2c-1.1,0.6-2.2,1.1-3.3,1.4
	c0.2,0.3,0.4,0.6,0.6,0.9c0.2,0.2,0.4,0.4,0.6,0.6c0.2,0.1,0.4,0.2,0.6,0.3c0.2,0.1,0.5,0.1,0.7,0.1c0.9,0,1.8-0.2,2.6-0.5
	c0.9-0.3,1.8-0.7,2.7-1.2c0.9-0.5,1.7-1,2.5-1.6c0.7-0.5,1.4-1.1,2-1.7l2.7,2.8c-1.2,1.2-2.5,2.3-3.9,3.3c-0.6,0.4-1.2,0.8-1.9,1.2
	c-0.7,0.4-1.4,0.8-2.1,1.1c-0.8,0.3-1.5,0.6-2.3,0.8C195.2,293.5,194.4,293.6,193.5,293.6z M190.8,283.9c0.6,0,1.1-0.1,1.6-0.4
	c0.6-0.3,1.1-0.6,1.6-1c0.5-0.4,0.9-0.8,1.3-1.3c0.3-0.4,0.5-0.9,0.5-1.4c0-0.5-0.1-1.1-0.3-1.5c-0.1-0.3-0.5-0.6-0.8-0.6
	c-0.5,0-1,0.1-1.5,0.3c-0.4,0.2-0.8,0.5-1.1,0.9c-0.3,0.4-0.5,0.8-0.7,1.2c-0.2,0.4-0.3,0.9-0.4,1.4c-0.1,0.4-0.1,0.9-0.2,1.3
	C190.8,283.2,190.8,283.6,190.8,283.9z"/>
<path class="st0" d="M210,280.8c0.6-0.8,1.2-1.5,1.9-2.4c0.7-0.8,1.4-1.6,2.2-2.4c0.7-0.7,1.4-1.3,2.3-1.8c0.6-0.4,1.4-0.7,2.1-0.7
	c0.2,0,0.4,0,0.6,0.1c0.2,0.1,0.4,0.2,0.6,0.3c0.2,0.2,0.4,0.4,0.5,0.7c0.1,0.4,0.2,0.8,0.2,1.1c0,0.9-0.1,1.8-0.4,2.7
	c-0.3,0.9-0.5,1.8-0.9,2.7s-0.6,1.8-0.9,2.7c-0.3,0.9-0.4,1.9-0.4,2.9c0,0.5,0.1,0.9,0.3,1.3c0.1,0.3,0.3,0.5,0.6,0.5
	c0.4,0,0.7-0.1,1-0.2c0.4-0.1,0.8-0.3,1.1-0.5c0.4-0.2,0.8-0.5,1.1-0.8c0.3-0.3,0.7-0.6,1-0.9c0.8-0.7,1.5-1.5,2.2-2.4l0.4,5.5
	l-0.9,0.7c-0.4,0.3-0.8,0.6-1.3,0.9s-1,0.7-1.5,1c-0.5,0.3-1.1,0.6-1.6,0.9c-0.5,0.3-1.1,0.5-1.6,0.6c-0.5,0.2-1,0.2-1.6,0.2
	c-0.7,0-1.4-0.2-2-0.6c-0.6-0.4-1-0.9-1.4-1.5c-0.4-0.6-0.6-1.3-0.8-2.1c-0.2-0.7-0.3-1.4-0.3-2.1c0-0.5,0.1-1,0.2-1.5
	c0.1-0.5,0.3-1.1,0.4-1.6c0.2-0.5,0.4-1.1,0.6-1.6c0.2-0.5,0.4-1,0.6-1.4c0.2-0.4,0.3-0.8,0.5-1c0.1-0.2,0.2-0.3,0.3-0.5l-0.4-0.1
	c-0.4,0.3-0.8,0.7-1.2,1.2c-0.6,0.6-1.2,1.4-1.9,2.3s-1.4,2-2.2,3.2c-0.7,1.2-1.4,2.4-2,3.6c-0.3,0.6-0.5,1.2-0.7,1.6
	c-0.2,0.4-0.3,0.8-0.6,1.1c-0.2,0.3-0.4,0.5-0.6,0.7c-0.3,0.2-0.6,0.2-0.9,0.2c-0.4,0-0.8-0.1-1.1-0.4c-0.3-0.3-0.5-0.6-0.6-1
	c-0.1-0.5-0.2-1-0.3-1.5c0-0.5-0.1-1.1-0.1-1.7c0-0.9,0-2.1,0-3.6s0.1-3.1,0.2-5c0.1-1.9,0.3-3.7,0.5-5.8s0.5-4,0.9-6
	c0.4-1.9,0.8-3.8,1.4-5.6c0.5-1.7,1.2-3.2,2.1-4.7c0.7-1.3,1.7-2.4,2.9-3.2c1.1-0.8,2.4-1.2,3.8-1.2c0.6,0,1.3,0.1,1.8,0.3
	c0.5,0.2,0.8,0.5,1.1,0.9c0.3,0.4,0.5,0.9,0.6,1.4c0.1,0.6,0.2,1.2,0.2,1.9c0,1.1-0.2,2.3-0.4,3.4c-0.3,1.3-0.7,2.6-1.1,3.9
	c-0.5,1.3-1,2.7-1.6,4.1s-1.2,2.7-1.9,4s-1.3,2.5-1.9,3.7c-0.6,1.1-1.2,2.1-1.6,3L210,280.8z M211.8,268c0.7-1.7,1.3-3.5,1.8-5.3
	c0.3-1,0.5-2.1,0.5-3.2c0-1-0.1-1.6-0.4-1.6s-0.9,0.6-1.6,1.8c-0.9,1.6-1.8,3.4-2.5,5.1c-0.2,0.8-0.5,1.5-0.6,2.4
	c-0.2,0.8-0.4,1.6-0.5,2.4c-0.2,0.8-0.3,1.6-0.4,2.4c-0.1,0.8-0.3,1.5-0.4,2.2c-0.2,1.6-0.4,3.3-0.5,4.8l1.2-2.8l1.3-3l1.2-2.8
	C211.2,269.3,211.5,268.6,211.8,268z"/>
<path class="st0" d="M225.2,283.7c0,0,12-16.1,18.9-8.7c0,0,15.6,14.2,6.2,23.1s-65.8,5.1-85.2,16.5l-6-2.8
	c3.4-3.2,18.5-6.4,18.5-6.4c9.1-2.8,31.6-3.5,31.6-3.5c9.4,0,18.8-1.1,27.9-3.4c7-1.8,13.7-4.5,12.1-9.8c-1.2-3.4-3.4-6.4-6.2-8.6
	c-3.4-3.5-7.8,0-7.8,0c-2,1.4-3.9,3-5.5,4.7c-1.4,1.4-2.6,3.1-4.1,4.4"/>
</svg>
